<?xml version="1.0" encoding="utf-8"?>
<!-- Generator: Adobe Illustrator 15.1.0, SVG Export Plug-In . SVG Version: 6.00 Build 0)  -->
<!DOCTYPE svg PUBLIC "-//W3C//DTD SVG 1.1//EN" "http://www.w3.org/Graphics/SVG/1.1/DTD/svg11.dtd">
<svg version="1.1" id="Layer_1" xmlns="http://www.w3.org/2000/svg" xmlns:xlink="http://www.w3.org/1999/xlink" x="0px" y="0px"
	 width="500px" height="500px" viewBox="0 0 500 500" enable-background="new 0 0 500 500" xml:space="preserve">
<g id="zabzogroup">
	<path fill="#A3DCE6" d="M115.535,20.526c-9.336-9.338-24.004-14.913-39.241-14.913c-5.274,0-10.373,0.709-14.737,2.05
		c-10.433,3.206-14.928,12.469-18.543,19.912c-0.881,1.819-1.739,3.573-2.602,5.053L2.468,70.437
		c-0.211,0.211-0.406,0.433-0.589,0.671c-1.382,1.809-2.038,4.05-1.846,6.311c0.204,2.449,1.364,4.67,3.303,6.288
		c1.04,0.853,2.227,1.46,3.532,1.806c0.791,0.211,1.608,0.315,2.434,0.315l0,0c2.772,0,5.39-1.183,7.182-3.255l7.189-7.174
		c0.001-0.002,0.003-0.005,0.004-0.008l10.972-10.97c0.032-0.033,0.074-0.053,0.106-0.086l0.39-0.389
		c0,0.029,0.003,0.059,0.003,0.087c0.488-0.28,1.084-0.375,1.643-0.229c0.305,0.085,0.576,0.223,0.814,0.421
		c0.438,0.362,0.701,0.871,0.743,1.434c0.044,0.508-0.099,1.034-0.386,1.397c-0.04,0.047-0.079,0.092-0.121,0.134l-2.306,2.306
		c0.005,0.026,0.005,0.053,0.011,0.077L6.009,99.057c-0.211,0.209-0.405,0.434-0.586,0.666c-1.388,1.822-2.043,4.076-1.848,6.287
		c0.196,2.465,1.358,4.697,3.287,6.304c1.045,0.862,2.247,1.477,3.544,1.813c0.794,0.215,1.615,0.319,2.442,0.319
		c2.777,0,5.396-1.187,7.18-3.254l18.566-18.532c0.053-0.102,0.104-0.199,0.183-0.302c0.032-0.038,0.068-0.076,0.106-0.112
		l10.968-10.97c0.533-0.572,1.379-0.817,2.144-0.614c0.286,0.075,0.562,0.211,0.803,0.41c0.443,0.361,0.712,0.87,0.756,1.434
		c0.041,0.491-0.091,1-0.356,1.365c-0.045,0.061-0.098,0.121-0.151,0.178l-7.05,7.045c0.009,0.008,0.015,0.015,0.019,0.021
		l-12.963,12.939c-0.207,0.211-0.401,0.433-0.584,0.666c-1.387,1.814-2.04,4.064-1.846,6.303c0.199,2.451,1.356,4.678,3.288,6.29
		c1.034,0.853,2.225,1.462,3.551,1.819c0.789,0.207,1.606,0.312,2.43,0.312l0,0c2.777,0,5.396-1.188,7.18-3.255l8.053-8.038
		c0.009-0.012,0.015-0.021,0.021-0.034c0.033-0.041,0.07-0.083,0.109-0.121l10.972-10.969c0.533-0.576,1.381-0.821,2.146-0.614
		c0.287,0.072,0.564,0.215,0.811,0.418c0.434,0.358,0.693,0.863,0.744,1.424c0.045,0.506-0.098,1.025-0.381,1.396
		c-0.039,0.052-0.08,0.101-0.131,0.146l-2.115,2.119c0.031,0.002,0.06,0.01,0.088,0.014l-28.557,28.504
		c-0.211,0.216-0.407,0.438-0.587,0.676c-1.382,1.809-2.035,4.045-1.845,6.298c0.202,2.452,1.357,4.679,3.292,6.291
		c1.034,0.853,2.225,1.461,3.538,1.812c0.792,0.211,1.613,0.316,2.439,0.316c2.773,0,5.392-1.188,7.181-3.255l46.045-45.959
		c0.027-0.021,0.062-0.034,0.092-0.058c4.188-3.168,7.768-5.405,10.928-7.379c7.285-4.547,12.551-7.832,15.604-17.205
		c0.021-0.062,0.04-0.125,0.055-0.189C130.63,51.031,126.881,31.87,115.535,20.526"/>
	<path fill="#FFFFFF" d="M110.411,56.394c-8.179-3.077-15.988-7.097-23.354-11.793c-1.664-1.057-3.977-1.107-5.145,0.017
		c-1.172,1.127-0.759,2.983,0.904,4.017c6.562,4.085,10.816,6.442,15.862,8.607C89,58.251,79.331,59.309,69.67,60.472
		c-0.27,0.045-0.521,0.122-0.763,0.216c-0.765,0.211-1.459,0.637-1.94,1.299c-1.125,1.541-0.676,3.682,0.976,4.642
		c9.427,5.478,14.07,7.567,23.197,10.459c1.601,0.508,3.813-0.355,4.948-1.8c1.133-1.438,0.762-2.931-0.842-3.457
		c-6.352-2.089-10.533-3.766-15.656-6.466c9.652-1.694,19.316-3.334,28.996-4.869c1.099-0.21,1.994-0.671,2.527-1.227
		c0.018-0.014,0.044-0.022,0.062-0.038C112.357,58.208,112.022,56.995,110.411,56.394z"/>
	<path fill="#A3DCE6" d="M128.51,25.79c-3.032-6.407-8.398-10.713-13.356-10.713c-1.247,0-2.429,0.265-3.518,0.789
		c-0.521,0.25-0.995,0.569-1.438,0.917c-1.031-2.771-2.588-5.461-4.625-7.889C100.903,3.327,94.523,0,88.512,0
		c-3.329,0-6.323,1.04-8.67,3.008c-6.728,5.646-6.131,17.472,1.326,26.36c4.674,5.57,11.053,8.895,17.062,8.895h0.001
		c3.328,0,6.325-1.041,8.666-3.007c0.451-0.375,0.86-0.78,1.248-1.209c0.169,0.415,0.343,0.828,0.538,1.24
		c3.029,6.405,8.396,10.712,13.354,10.712c1.246,0,2.431-0.266,3.518-0.789C131.102,42.544,132.397,34.012,128.51,25.79"/>
	<path fill="#FFFFFF" d="M115.154,20.616c-0.416,0-0.78,0.078-1.116,0.241c-2.33,1.12-2.973,6.515-0.347,12.06
		c2.315,4.899,6.031,7.542,8.348,7.542c0.416,0,0.779-0.079,1.116-0.239c2.328-1.121,2.969-6.516,0.35-12.061
		C121.185,23.258,117.471,20.616,115.154,20.616"/>
	<path fill="#FFFFFF" d="M101.331,12.454c-3.578-4.265-8.488-6.916-12.817-6.916c-2.037,0-3.757,0.577-5.109,1.711
		c-4.312,3.621-3.392,12.12,2.013,18.559c3.578,4.265,8.49,6.914,12.817,6.914c2.038,0,3.754-0.576,5.106-1.71
		c1.992-1.673,2.953-4.426,2.705-7.756C105.773,19.59,104.098,15.753,101.331,12.454"/>
	<path fill="#FFFFFF" d="M123.155,40.217c-0.337,0.161-0.702,0.24-1.116,0.24c-2.318,0-6.03-2.643-8.348-7.541
		c-2.626-5.546-1.983-10.941,0.345-12.061c0.338-0.163,0.702-0.241,1.118-0.241c2.317,0,6.031,2.642,8.351,7.542
		C126.125,33.703,125.482,39.098,123.155,40.217 M103.338,31.012c-1.353,1.134-3.067,1.71-5.105,1.71h-0.001
		c-4.329,0-9.237-2.649-12.817-6.914C80.012,19.37,79.09,10.87,83.403,7.249c1.354-1.134,3.07-1.711,5.109-1.711
		c4.328,0,9.24,2.65,12.818,6.916c2.771,3.298,4.441,7.136,4.713,10.802C106.293,26.586,105.333,29.34,103.338,31.012"/>
	<path fill="#5F6062" d="M90.502,21.884c-3.319-3.205-4.006-7.88-1.533-10.439c2.471-2.561,7.162-2.038,10.484,1.168
		c3.317,3.205,4.006,7.878,1.533,10.438S93.821,25.089,90.502,21.884"/>
	<path fill="#5F6062" d="M120.092,32.897c-1.638,0.749-3.996-0.916-5.271-3.716c-1.271-2.802-0.975-5.68,0.661-6.428
		c1.637-0.748,3.997,0.915,5.27,3.717C122.024,29.273,121.728,32.148,120.092,32.897"/>
</g>
</svg>
