<?xml version="1.0" encoding="utf-8"?>
<!-- Generator: Adobe Illustrator 15.1.0, SVG Export Plug-In . SVG Version: 6.00 Build 0)  -->
<!DOCTYPE svg PUBLIC "-//W3C//DTD SVG 1.1//EN" "http://www.w3.org/Graphics/SVG/1.1/DTD/svg11.dtd">
<svg version="1.1" id="Layer_1" xmlns="http://www.w3.org/2000/svg" xmlns:xlink="http://www.w3.org/1999/xlink" x="0px" y="0px"
	 width="500px" height="500px" viewBox="0 0 500 500" enable-background="new 0 0 500 500" xml:space="preserve">
<g>
	<path fill="#A3DCE6" d="M115.535,20.526c-9.336-9.338-24.004-14.913-39.242-14.913c-5.275,0-10.373,0.709-14.738,2.05
		c-10.432,3.206-14.927,12.469-18.542,19.912c-0.881,1.819-1.739,3.573-2.602,5.053L2.467,70.437
		c-0.211,0.211-0.406,0.433-0.589,0.671c-1.382,1.808-2.038,4.05-1.846,6.311c0.204,2.449,1.364,4.669,3.303,6.288
		c1.04,0.852,2.227,1.459,3.532,1.805c0.791,0.211,1.608,0.316,2.434,0.316l0,0c2.772,0,5.39-1.183,7.182-3.255l7.189-7.174
		c0.001-0.002,0.003-0.005,0.004-0.008l10.972-10.97c0.032-0.033,0.074-0.053,0.106-0.086l0.39-0.389
		c0,0.029,0.003,0.059,0.003,0.087c0.488-0.28,1.084-0.375,1.643-0.229c0.305,0.085,0.576,0.223,0.814,0.421
		c0.438,0.362,0.701,0.871,0.743,1.434c0.044,0.508-0.099,1.034-0.386,1.397c-0.04,0.047-0.079,0.092-0.121,0.134l-2.306,2.306
		c0.005,0.026,0.005,0.053,0.011,0.077L6.008,99.058c-0.211,0.209-0.405,0.433-0.586,0.666c-1.388,1.822-2.043,4.075-1.848,6.287
		c0.196,2.464,1.358,4.697,3.287,6.303c1.045,0.862,2.247,1.477,3.544,1.814c0.794,0.215,1.615,0.319,2.442,0.319
		c2.777,0,5.396-1.187,7.18-3.254l18.566-18.532c0.053-0.102,0.104-0.2,0.183-0.302c0.032-0.038,0.068-0.076,0.106-0.112
		l10.968-10.97c0.533-0.572,1.379-0.818,2.144-0.614c0.286,0.075,0.562,0.211,0.803,0.41c0.443,0.362,0.712,0.87,0.756,1.433
		c0.041,0.492-0.091,1-0.356,1.366c-0.045,0.06-0.098,0.121-0.151,0.177l-7.05,7.045c0.009,0.008,0.015,0.015,0.019,0.022
		l-12.963,12.939c-0.207,0.211-0.401,0.433-0.584,0.667c-1.387,1.814-2.04,4.064-1.846,6.302c0.199,2.452,1.356,4.678,3.288,6.29
		c1.034,0.853,2.225,1.462,3.551,1.819c0.789,0.207,1.606,0.313,2.43,0.313l0,0c2.777,0,5.396-1.188,7.18-3.255l8.053-8.038
		c0.009-0.012,0.015-0.022,0.021-0.034c0.033-0.041,0.07-0.083,0.109-0.121l10.972-10.969c0.533-0.576,1.381-0.821,2.146-0.614
		c0.287,0.072,0.564,0.215,0.811,0.418c0.434,0.358,0.693,0.863,0.744,1.424c0.045,0.505-0.098,1.025-0.381,1.395
		c-0.039,0.052-0.08,0.101-0.131,0.146l-2.115,2.119c0.031,0.002,0.059,0.01,0.088,0.014L38.83,130.435
		c-0.211,0.215-0.407,0.438-0.587,0.675c-1.382,1.809-2.035,4.045-1.845,6.298c0.202,2.452,1.357,4.679,3.292,6.291
		c1.034,0.852,2.225,1.461,3.538,1.812c0.792,0.211,1.613,0.316,2.439,0.316c2.773,0,5.392-1.187,7.181-3.255l46.044-45.959
		c0.027-0.02,0.064-0.034,0.092-0.058c4.188-3.167,7.768-5.405,10.928-7.379c7.285-4.547,12.551-7.832,15.604-17.205
		c0.02-0.062,0.039-0.125,0.055-0.189C130.631,51.031,126.881,31.87,115.535,20.526"/>
	<path fill="#FFFFFF" d="M109.753,47.088c-11.83-4.452-23.128-10.267-33.782-17.06c-2.408-1.528-5.753-1.602-7.439,0.025
		c-1.695,1.63-1.099,4.316,1.308,5.81c9.49,5.909,15.647,9.319,22.944,12.45c-14,1.459-27.987,2.991-41.961,4.673
		c-0.39,0.065-0.755,0.177-1.102,0.312c-1.108,0.305-2.11,0.921-2.808,1.878c-1.627,2.229-0.977,5.326,1.41,6.714
		c13.637,7.923,20.353,10.947,33.556,15.13c2.317,0.734,5.518-0.515,7.16-2.602c1.638-2.08,1.102-4.24-1.218-5.002
		c-9.188-3.021-15.237-5.446-22.648-9.353c13.963-2.451,27.943-4.823,41.945-7.043c1.588-0.304,2.885-0.971,3.656-1.775
		c0.026-0.02,0.065-0.032,0.09-0.055C112.57,49.711,112.084,47.957,109.753,47.088z"/>
	<path fill="#A3DCE6" d="M128.51,25.79c-3.031-6.407-8.398-10.713-13.355-10.713c-1.248,0-2.43,0.265-3.518,0.789
		c-0.521,0.25-0.996,0.569-1.439,0.917c-1.031-2.771-2.588-5.461-4.625-7.889C100.902,3.326,94.523,0,88.512,0
		c-3.328,0-6.322,1.04-8.668,3.008c-6.729,5.646-6.133,17.472,1.326,26.36c4.672,5.57,11.051,8.895,17.062,8.895l0,0
		c3.328,0,6.326-1.041,8.666-3.007c0.451-0.375,0.861-0.78,1.248-1.209c0.17,0.415,0.344,0.828,0.539,1.24
		c3.029,6.405,8.396,10.712,13.354,10.712c1.246,0,2.43-0.266,3.516-0.789C131.102,42.543,132.396,34.012,128.51,25.79"/>
	<path fill="#FFFFFF" d="M115.154,20.616c-0.416,0-0.781,0.078-1.117,0.241c-2.33,1.12,3.337,4.307,5.964,9.852
		c2.314,4.899-0.278,9.749,2.038,9.749c0.416,0,0.779-0.079,1.115-0.239c2.328-1.121,2.969-6.516,0.35-12.061
		C121.186,23.258,117.471,20.616,115.154,20.616"/>
	<path fill="#FFFFFF" d="M101.33,12.454c-3.578-4.265-8.488-6.916-12.818-6.916c-2.037,0-3.756,0.577-5.109,1.711
		c-4.312,3.621,3.023-0.07,10.035,4.563c4.667,3.083,5.875,5,7.646,10.605c0.932,2.95,0.903,9.729,2.256,8.595
		c1.992-1.673,2.953-4.426,2.705-7.756C105.773,19.59,104.098,15.752,101.33,12.454"/>
</g>
</svg>
